<?xml version="1.0" standalone="no"?>
<!DOCTYPE svg PUBLIC "-//W3C//DTD SVG 20010904//EN"
 "http://www.w3.org/TR/2001/REC-SVG-20010904/DTD/svg10.dtd">
<svg version="1.0" xmlns="http://www.w3.org/2000/svg"
 width="256.000000pt" height="256.000000pt" viewBox="0 0 256.000000 256.000000"
 preserveAspectRatio="xMidYMid meet">
<metadata>
Created by potrace 1.11, written by Peter Selinger 2001-2013
</metadata>
<g transform="translate(0.000000,256.000000) scale(0.100000,-0.100000)"
fill="#000000" stroke="none">
<path d="M1150 2361 c0 -6 4 -13 10 -16 6 -3 7 1 4 9 -7 18 -14 21 -14 7z"/>
<path d="M1670 2360 c0 -5 5 -10 11 -10 5 0 7 5 4 10 -3 6 -8 10 -11 10 -2 0
-4 -4 -4 -10z"/>
<path d="M1866 2362 c-3 -5 1 -9 9 -9 8 0 12 4 9 9 -3 4 -7 8 -9 8 -2 0 -6 -4
-9 -8z"/>
<path d="M1335 2350 c-3 -6 1 -7 9 -4 9 3 16 2 16 -4 0 -15 -22 -21 -41 -11
-8 4 -21 4 -29 -1 -7 -4 -20 -6 -28 -2 -11 4 -13 2 -7 -9 7 -12 6 -12 -9 1
-17 13 -17 14 1 22 13 6 11 7 -7 2 -14 -3 -35 -7 -48 -9 -13 -2 -28 -7 -35
-12 -20 -15 -55 -9 -72 12 -16 20 -16 20 -6 -2 7 -14 8 -24 1 -28 -5 -3 -10 1
-10 9 0 8 -4 17 -8 20 -5 3 -6 -8 -4 -25 4 -29 4 -29 -40 -33 -7 -1 -16 -5
-19 -10 -9 -12 -89 -16 -89 -4 0 6 7 8 14 5 10 -4 13 -1 10 7 -3 7 -11 13 -19
13 -8 0 -12 -4 -9 -8 7 -11 -17 -23 -49 -25 -18 -1 -33 6 -42 19 -10 15 -15
17 -15 7 0 -13 -2 -13 -10 0 -9 13 -11 13 -20 0 -5 -8 -10 -10 -10 -5 0 6 4
15 10 21 6 6 3 10 -9 10 -13 0 -17 -6 -14 -21 4 -16 3 -17 -6 -5 -6 8 -11 11
-11 5 0 -5 -8 -1 -16 10 -16 20 -16 20 -9 -3 6 -22 5 -22 -14 -10 -18 11 -23
11 -31 -2 -8 -12 -10 -12 -10 -1 0 9 -4 10 -13 4 -17 -13 -43 -10 -39 6 1 7
-2 10 -8 6 -6 -4 -19 -1 -28 6 -16 13 -16 12 0 -7 16 -19 16 -20 -2 -20 -10 0
-16 4 -14 8 3 4 1 8 -5 8 -5 0 -13 -5 -16 -10 -4 -6 -12 -7 -18 -3 -18 11 -99
11 -121 0 -11 -6 -16 -5 -13 1 4 5 -6 14 -21 21 -24 10 -25 10 -10 -2 22 -17
23 -24 3 -24 -8 0 -15 5 -15 10 0 5 -7 4 -15 -3 -8 -7 -21 -10 -29 -7 -10 4
-13 1 -9 -9 3 -9 -1 -14 -13 -14 -11 0 -15 -4 -9 -8 13 -10 17 -32 6 -32 -9 0
-7 -34 6 -75 9 -29 12 -155 4 -155 -4 0 -7 16 -6 35 1 19 -4 43 -12 53 -12 15
-13 14 -2 -8 7 -14 13 -26 13 -27 1 -1 -8 -9 -19 -18 -16 -12 -17 -14 -2 -9 9
3 17 1 17 -5 0 -6 -6 -11 -14 -11 -8 0 -17 -4 -20 -8 -3 -5 5 -8 17 -8 20 1
22 -4 22 -55 0 -41 -3 -55 -12 -52 -7 3 -11 8 -8 12 2 4 -2 8 -10 8 -19 0 -19
-3 6 -25 19 -18 19 -21 3 -36 -12 -12 -14 -20 -6 -28 14 -14 3 -42 -12 -29 -8
7 -12 5 -12 -8 0 -13 6 -17 21 -14 15 4 17 2 6 -5 -8 -6 -9 -11 -3 -13 6 -2
12 -13 14 -24 2 -16 -2 -20 -22 -18 -25 1 -25 1 2 -10 16 -6 28 -15 28 -20 0
-4 -6 -5 -13 -1 -6 4 -9 4 -5 -1 4 -4 2 -15 -5 -23 -6 -9 -7 -13 -1 -10 16 10
48 -41 49 -78 1 -19 -2 -34 -7 -34 -4 0 -8 5 -8 10 0 6 -4 10 -10 10 -18 0
-11 -18 9 -25 12 -3 19 -14 18 -26 -1 -19 -2 -19 -19 3 l-19 23 12 -27 c7 -16
17 -28 23 -28 5 0 1 -6 -10 -14 -10 -8 -16 -18 -11 -22 4 -4 7 -2 7 4 0 7 3
12 8 12 4 0 8 -16 8 -36 1 -20 8 -40 15 -45 10 -6 11 -9 2 -9 -7 0 -13 -12
-13 -26 0 -14 -4 -23 -8 -20 -4 2 -14 0 -22 -6 -12 -8 -12 -9 2 -4 10 3 18 1
18 -5 0 -6 7 -3 16 5 8 9 18 16 20 16 9 0 -10 -25 -33 -43 -13 -10 -20 -23
-17 -29 4 -7 2 -8 -4 -4 -7 4 -12 2 -12 -3 0 -6 5 -11 10 -11 6 0 10 -5 10
-11 0 -5 -4 -7 -10 -4 -14 9 -12 -8 2 -24 11 -11 10 -13 -4 -8 -12 4 -15 2
-11 -8 3 -8 8 -13 12 -11 4 3 7 -11 7 -30 0 -19 -5 -34 -10 -34 -5 0 -1 -7 10
-15 22 -17 12 -20 -19 -4 -21 10 -21 10 -3 -5 11 -9 24 -16 30 -16 5 0 1 -7
-10 -15 -16 -12 -17 -14 -2 -15 9 0 20 -9 23 -20 4 -11 11 -17 17 -14 6 4 6
-1 -1 -14 -6 -11 -8 -29 -4 -39 6 -16 5 -17 -13 -3 -18 14 -18 14 -5 -2 15
-20 35 -14 27 8 -3 7 -2 16 3 18 4 3 7 -14 6 -37 -1 -26 -6 -41 -13 -39 -7 1
-12 -2 -12 -8 0 -5 5 -10 11 -10 5 0 7 -5 4 -10 -4 -6 -10 -8 -15 -5 -16 10
-18 -10 -3 -30 12 -15 14 -16 10 -3 -3 9 0 19 7 21 10 4 12 -1 9 -14 -7 -27
-18 -31 -33 -14 -7 8 -17 15 -22 15 -5 0 -2 -7 6 -16 10 -9 14 -24 10 -38 -6
-24 -12 -56 -13 -69 -1 -5 -7 -5 -13 -2 -7 4 -5 0 5 -8 20 -17 23 -31 4 -24
-8 3 -14 -1 -14 -9 0 -8 7 -14 16 -14 14 0 14 -2 1 -10 -8 -5 -10 -10 -4 -10
12 0 13 -49 0 -69 -7 -11 -5 -13 6 -9 11 5 14 0 12 -20 -1 -15 -3 -28 -4 -29
-1 -2 -2 -22 -2 -45 0 -24 -6 -49 -12 -57 -8 -11 -8 -13 1 -7 7 4 13 2 13 -3
0 -6 -6 -11 -12 -12 -7 -1 -2 -4 12 -8 14 -5 24 -14 22 -22 -3 -11 -1 -11 9
-2 13 13 39 7 39 -9 0 -7 -5 -6 -13 1 -10 8 -14 7 -14 -2 0 -7 10 -13 23 -13
15 0 20 5 17 16 -3 9 -2 11 4 4 4 -6 18 -10 30 -9 12 1 20 -2 17 -7 -3 -4 2
-8 11 -8 9 0 14 3 12 8 -3 4 6 8 20 9 l26 1 -29 -20 c-23 -15 -24 -18 -7 -13
12 3 24 1 28 -5 3 -5 11 -10 18 -10 6 0 2 7 -9 15 -18 13 -18 14 -1 15 10 0
16 4 12 9 -3 5 0 13 6 17 8 4 9 3 5 -4 -9 -16 7 -15 22 0 9 9 11 7 7 -10 -2
-15 0 -19 11 -15 7 3 11 10 7 16 -3 6 -1 7 5 3 7 -4 12 -2 12 3 0 6 9 3 19 -6
11 -9 18 -20 16 -23 -2 -4 2 -7 10 -7 10 0 11 5 4 18 -5 10 -5 20 0 23 12 8
29 -16 26 -36 -2 -10 1 -18 6 -18 5 0 9 5 9 11 0 6 7 8 16 5 8 -3 12 -2 9 4
-3 6 -1 10 5 10 6 0 8 4 5 10 -3 6 1 7 9 4 10 -4 16 -1 16 7 1 9 4 8 11 -3 5
-10 15 -18 21 -18 6 0 5 7 -3 18 -12 15 -12 16 2 5 9 -7 20 -9 25 -5 4 4 2 -2
-6 -12 -14 -18 -13 -19 3 -13 10 4 21 7 23 7 3 0 3 3 1 8 -3 4 6 8 20 9 24 1
24 0 -7 -19 -18 -10 -29 -22 -25 -26 4 -4 10 -1 12 6 3 6 11 12 19 12 9 0 12
-4 9 -10 -3 -5 -1 -10 5 -10 7 0 10 7 6 15 -3 9 0 15 10 15 8 0 13 4 9 9 -3 5
0 13 6 17 8 4 9 3 5 -4 -8 -13 20 -12 42 2 8 4 11 3 10 -5 -2 -6 3 -14 10 -16
8 -3 10 1 5 14 -7 17 -6 17 11 0 17 -17 52 -25 42 -9 -2 4 4 8 14 8 10 0 17
-4 14 -7 -2 -4 0 -10 6 -14 5 -3 10 0 10 7 0 10 2 10 9 0 4 -8 12 -14 16 -14
4 0 12 6 17 14 7 10 8 8 6 -6 -2 -10 3 -21 11 -24 9 -3 11 0 6 8 -6 9 -4 11 4
6 7 -5 10 -10 7 -13 -8 -8 23 -35 33 -28 6 3 14 -3 20 -12 8 -15 12 -16 23 -4
11 12 10 13 -2 6 -10 -6 -8 -1 4 13 23 26 41 29 31 4 -12 -27 -14 -61 -5 -67
5 -3 7 5 5 18 -4 17 0 23 15 24 13 1 18 -2 14 -9 -4 -7 -2 -8 4 -4 14 8 16 36
4 36 -4 0 -13 -4 -20 -10 -8 -7 -9 -7 -3 1 5 6 8 17 7 23 -2 6 -1 8 1 3 3 -4
9 -5 14 -1 5 3 9 0 9 -6 0 -6 4 -9 9 -6 5 3 8 -2 7 -12 0 -9 5 -16 11 -14 7 1
13 -4 13 -10 0 -9 4 -8 10 2 7 11 10 12 10 2 0 -8 6 -12 13 -9 6 2 21 -3 32
-12 12 -9 15 -10 8 -1 -19 21 -16 34 5 19 14 -11 15 -11 5 1 -13 14 -19 39 -6
27 3 -4 15 0 25 10 10 9 18 13 18 9 0 -4 9 -2 20 4 12 7 20 7 20 1 0 -10 -39
-27 -53 -23 -5 1 -5 -3 -1 -9 4 -8 3 -9 -4 -5 -8 5 -10 1 -5 -10 5 -15 7 -15
15 0 8 15 12 15 41 0 l32 -15 -25 20 -25 21 32 0 c17 0 34 -6 36 -12 4 -10 6
-10 6 0 1 6 6 12 12 12 5 0 8 -4 4 -9 -3 -5 0 -13 6 -17 7 -4 9 -3 5 4 -3 6
-2 13 4 17 5 3 10 0 10 -7 0 -10 3 -9 9 1 8 13 12 13 27 0 16 -13 16 -12 4 7
-7 11 -19 21 -26 21 -7 0 -11 -4 -9 -8 3 -4 -3 -6 -12 -5 -9 2 -19 8 -21 14
-2 7 3 10 12 6 10 -4 16 -1 16 7 0 12 2 12 9 0 6 -9 10 -10 16 -2 5 9 10 9 21
0 11 -9 17 -9 28 0 12 10 14 7 11 -20 -4 -29 -3 -30 9 -13 8 10 12 23 9 28 -4
5 -1 6 5 2 7 -4 12 -2 12 5 0 7 3 9 6 6 4 -4 -1 -18 -11 -33 l-17 -27 25 19
c14 11 23 22 21 26 -2 4 1 10 8 14 7 4 10 4 6 -1 -9 -9 30 -40 39 -31 4 3 2 6
-4 6 -6 0 -14 8 -17 17 -4 10 -4 14 0 10 4 -4 14 -1 23 6 14 10 14 10 3 -4
-10 -14 -10 -18 2 -22 9 -4 13 -15 11 -28 -2 -12 -1 -18 3 -15 4 4 7 11 7 14
0 4 4 13 9 20 6 10 11 10 22 1 11 -9 14 -9 14 0 0 7 4 10 8 7 4 -2 14 -1 21 3
8 5 -9 8 -38 6 -42 -2 -49 0 -40 11 8 10 16 11 23 5 7 -6 18 -6 26 -1 8 5 18
6 22 4 18 -11 59 -14 53 -4 -3 6 0 7 9 4 25 -9 19 -23 -8 -20 -17 2 -23 -1
-19 -11 4 -9 9 -10 18 -3 12 10 25 4 25 -12 0 -5 -6 -6 -12 -2 -7 4 -9 3 -5
-1 14 -16 36 -14 30 3 -4 10 -2 13 5 8 6 -3 13 -2 16 3 4 5 1 13 -5 17 -7 4
-9 3 -6 -3 3 -5 -1 -10 -9 -10 -10 0 -11 4 -4 11 14 14 42 17 33 3 -4 -6 0 -8
9 -4 9 3 21 0 28 -6 10 -10 11 -8 6 8 -5 15 -4 17 4 9 6 -6 12 -20 13 -32 0
-11 6 -20 12 -19 5 1 9 -4 7 -11 -1 -8 2 -11 8 -7 7 4 5 14 -5 28 -20 29 -21
53 -1 35 8 -7 11 -17 8 -23 -2 -5 1 -4 9 2 7 7 21 13 31 13 10 0 18 5 18 11 0
5 -6 7 -12 3 -9 -5 -9 -3 1 9 7 9 17 15 21 12 5 -3 16 2 24 11 9 8 16 12 16 7
0 -14 -17 -35 -26 -33 -5 1 -10 -3 -12 -8 -3 -11 28 -26 36 -17 3 3 0 5 -7 5
-7 0 -9 5 -6 10 5 8 11 7 21 -1 8 -6 14 -8 14 -3 0 5 5 2 10 -6 8 -13 10 -12
10 3 0 9 5 17 11 17 5 0 7 -6 3 -13 -4 -6 -3 -8 1 -4 5 4 10 14 11 22 2 13 -2
13 -26 0 -18 -9 -31 -11 -35 -5 -3 6 1 10 11 10 13 0 14 3 5 13 -8 10 -7 14 4
14 8 0 12 -4 9 -9 -3 -4 5 -8 18 -8 46 0 59 -4 54 -16 -3 -9 1 -11 11 -7 12 5
14 3 8 -8 -8 -12 -6 -12 8 0 20 16 23 25 5 15 -7 -4 -3 3 9 15 25 24 42 29 23
6 -7 -9 -10 -18 -6 -22 3 -3 6 -1 6 6 0 7 4 10 9 7 5 -4 8 2 7 11 -2 10 2 22
8 26 7 6 4 7 -6 3 -10 -3 -20 0 -24 6 -4 6 -3 8 3 5 12 -8 12 95 0 104 -5 3 1
9 12 12 17 4 19 2 11 -12 -6 -12 -5 -22 2 -29 8 -8 8 -12 2 -12 -19 0 -10 -53
10 -56 16 -2 16 -1 2 14 -9 11 -12 23 -6 31 4 8 6 25 4 38 -3 14 0 23 8 23 9
0 8 3 -2 10 -13 8 -13 10 2 10 9 0 19 3 21 8 3 4 -5 7 -18 7 -13 0 -21 -3 -19
-6 2 -4 -2 -9 -9 -12 -7 -3 -13 3 -13 13 0 10 5 16 10 13 6 -4 6 1 1 13 -4 10
-7 27 -7 37 0 9 -5 17 -11 17 -9 0 -9 2 -1 8 7 4 11 19 10 34 0 15 4 27 9 25
6 -1 9 -5 7 -9 -1 -5 3 -8 9 -8 8 0 7 -6 -2 -17 -11 -13 -12 -17 -1 -21 10 -3
9 -8 -4 -23 -9 -10 -15 -19 -13 -20 2 0 12 -2 22 -4 14 -3 16 0 8 9 -11 13 -5
26 11 26 5 0 6 -5 2 -12 -5 -7 -3 -8 6 -3 10 6 7 12 -10 25 -15 11 -19 20 -11
24 8 5 7 15 -4 36 -19 36 -19 46 -1 31 11 -10 14 -9 12 3 -1 9 -5 19 -9 22 -4
4 -1 14 6 23 11 14 10 14 -5 2 -10 -7 -16 -16 -14 -20 3 -4 -5 -18 -15 -31
-19 -23 -19 -23 -9 -2 6 12 8 22 4 22 -3 0 -1 6 5 13 6 8 8 16 6 19 -12 11
-14 48 -3 42 8 -5 9 -1 4 11 -5 15 -4 16 9 5 16 -13 21 -35 6 -25 -5 3 -12 1
-15 -4 -9 -14 8 -21 24 -11 12 8 13 13 3 30 -17 25 -16 30 1 30 8 0 17 4 20 9
4 5 -3 7 -13 4 -14 -4 -24 3 -34 24 -8 15 -12 34 -9 42 3 10 0 11 -9 5 -11 -6
-12 -5 -3 7 15 20 15 59 1 59 -7 0 -6 4 3 9 16 11 33 4 25 -10 -4 -5 -1 -9 6
-9 8 0 8 -4 -2 -16 -10 -12 -10 -17 0 -23 9 -6 8 -11 -3 -21 -17 -14 -11 -34
6 -24 7 5 9 1 5 -9 -3 -9 -3 -18 1 -21 4 -3 8 4 9 14 1 11 -3 22 -8 25 -11 7
-2 25 12 25 6 0 7 -5 3 -12 -5 -7 -3 -8 6 -3 10 6 7 12 -10 25 -15 11 -19 20
-11 24 8 5 7 15 -4 36 -19 37 -19 46 0 30 10 -9 15 -9 15 -1 0 6 -4 11 -9 11
-5 0 -8 13 -7 30 2 23 -1 27 -11 18 -8 -7 -10 -15 -4 -22 6 -7 5 -18 -4 -29
-11 -15 -12 -11 -10 30 1 27 -3 51 -9 55 -8 6 -7 8 1 8 7 0 10 7 7 15 -4 8 -1
15 4 15 6 0 9 -9 7 -20 -5 -26 7 -26 23 0 10 16 10 20 0 18 -7 -2 -12 3 -11
10 2 6 -2 12 -8 12 -8 0 -7 6 2 17 8 9 9 14 3 10 -7 -4 -15 0 -18 8 -3 9 1 18
9 21 8 4 15 11 15 16 0 7 -5 6 -13 -1 -9 -7 -17 -7 -24 0 -6 6 -10 5 -10 -5 0
-8 4 -13 8 -11 4 3 6 -6 5 -20 -2 -13 0 -23 4 -20 4 2 7 -2 7 -10 0 -21 -10
-19 -25 6 -10 15 -10 19 -1 14 7 -5 10 -3 7 6 -3 8 -11 13 -17 12 -6 -2 -11 2
-11 7 0 6 5 10 12 10 6 0 8 3 5 7 -4 3 0 17 8 29 11 17 12 22 2 18 -9 -3 -12
4 -11 23 0 16 -3 31 -8 34 -5 3 -3 9 6 12 8 3 18 1 22 -5 4 -6 3 -8 -3 -5 -5
3 -10 0 -10 -8 0 -8 5 -11 10 -8 7 4 8 -1 3 -13 -4 -10 -3 -15 1 -10 11 10 12
66 1 60 -4 -3 -8 0 -8 7 0 8 -5 8 -17 -2 -15 -11 -16 -11 -5 1 14 16 16 34 3
25 -6 -3 -8 3 -6 14 2 11 -3 25 -10 31 -13 11 -13 29 0 71 5 15 3 18 -12 13
-14 -4 -15 -4 -4 4 7 5 14 21 14 36 0 17 5 26 15 26 8 0 12 3 9 7 -8 7 11 33
24 33 5 0 9 -5 9 -11 0 -5 -5 -7 -10 -4 -6 4 -10 3 -9 -2 4 -15 -13 -43 -22
-37 -5 3 -9 3 -9 0 0 -3 9 -10 20 -16 16 -8 18 -8 14 5 -3 8 2 22 11 31 9 9
14 23 10 31 -4 11 -1 13 10 9 10 -3 13 -2 10 5 -4 5 -16 7 -28 4 -18 -5 -19
-4 -7 4 13 10 13 12 0 21 -8 5 -10 10 -5 10 13 0 14 39 2 58 -8 11 -2 16 16
13 10 -1 9 7 -4 31 -8 16 -8 19 1 13 8 -5 11 -3 8 6 -3 8 -11 13 -17 11 -8 -1
-9 2 -4 10 11 18 10 51 -2 61 -6 5 -3 7 8 3 20 -6 21 -2 7 24 -7 13 -6 21 5
30 8 7 15 17 15 23 0 5 -10 2 -22 -9 -13 -11 -18 -13 -11 -3 10 12 10 18 0 29
-7 8 -7 10 -1 7 7 -4 12 3 12 18 0 14 -4 25 -8 25 -3 0 -7 6 -7 13 0 9 10 13
24 11 13 -1 21 2 17 7 -3 5 -10 7 -15 4 -5 -4 -9 1 -9 10 0 9 7 15 16 13 10
-2 19 3 22 11 3 10 -2 11 -19 6 -19 -6 -21 -5 -12 5 14 15 6 40 -13 40 -17 0
-18 16 -2 26 6 4 8 3 5 -3 -3 -5 0 -10 8 -10 8 0 12 4 9 8 -2 4 -1 9 3 12 5 2
3 3 -3 1 -17 -4 -33 10 -37 33 -3 23 -30 53 -47 53 -6 0 -8 5 -5 10 3 6 -5 11
-19 11 -39 2 -44 3 -53 13 -5 5 -2 6 6 1 9 -5 12 -4 8 2 -8 12 -36 10 -64 -5
-15 -8 -24 -9 -28 -1 -4 6 -13 8 -21 5 -9 -3 -14 1 -14 12 -1 15 -2 15 -13 2
-12 -16 -50 -21 -62 -8 -4 3 -1 17 5 30 9 18 7 17 -12 -6 -21 -25 -27 -27 -46
-17 -13 7 -19 17 -16 23 4 7 3 8 -5 4 -6 -4 -9 -11 -6 -16 3 -4 -25 -7 -62 -6
-41 2 -68 7 -71 14 -2 7 -8 12 -13 12 -4 0 -6 -8 -2 -17 4 -13 -1 -11 -18 7
-13 13 -23 28 -21 33 1 5 -2 5 -8 2 -8 -5 -6 -12 4 -24 14 -16 12 -17 -39 -18
-30 0 -53 2 -50 6 2 4 -2 8 -10 8 -8 0 -12 -4 -9 -9 3 -4 -2 -8 -11 -8 -8 0
-18 -7 -21 -15 -4 -8 -10 -15 -15 -15 -11 0 -7 22 6 33 6 5 4 7 -4 5 -13 -4
-19 -17 -25 -60 -1 -10 -6 -21 -10 -25 -4 -5 -7 -3 -6 2 5 21 0 36 -10 30 -6
-4 -7 -11 -4 -17 4 -7 2 -8 -5 -4 -9 6 -9 11 0 22 6 7 14 12 18 10 4 -3 8 5 8
16 2 19 1 19 -11 3 -19 -26 -67 -28 -73 -4 -5 19 -11 21 -70 23 -24 0 -29 3
-22 13 11 13 4 33 -11 33 -5 0 -12 -4 -15 -10z m-105 -30 c0 -5 -2 -10 -4 -10
-3 0 -8 5 -11 10 -3 6 -1 10 4 10 6 0 11 -4 11 -10z m935 -40 c3 -5 1 -10 -4
-10 -6 0 -11 5 -11 10 0 6 2 10 4 10 3 0 8 -4 11 -10z m-595 -20 c0 -5 -2 -10
-4 -10 -3 0 -8 5 -11 10 -3 6 -1 10 4 10 6 0 11 -4 11 -10z m765 -149 c3 -5 1
-12 -5 -16 -6 -4 -8 -10 -5 -15 3 -4 -2 -13 -10 -20 -10 -9 -15 -9 -15 -1 0 6
5 11 12 11 9 0 9 3 1 11 -12 12 -7 39 7 39 5 0 11 -4 15 -9z m-2065 -481 c0
-5 -2 -10 -4 -10 -3 0 -8 5 -11 10 -3 6 -1 10 4 10 6 0 11 -4 11 -10z m1983
-155 c-3 -9 -8 -14 -10 -11 -3 3 -2 9 2 15 9 16 15 13 8 -4z m-1933 -149 c0
-3 -4 -8 -10 -11 -5 -3 -10 -1 -10 4 0 6 5 11 10 11 6 0 10 -2 10 -4z m2020
-501 c10 -12 10 -15 -2 -15 -8 0 -15 7 -15 15 0 8 1 15 2 15 2 0 8 -7 15 -15z
m-1676 -514 c3 -5 -1 -11 -9 -14 -9 -4 -12 -1 -8 9 6 16 10 17 17 5z m829 -29
c3 7 4 3 4 -8 -1 -24 -22 -22 -31 3 -5 13 -4 14 8 4 11 -9 15 -9 19 1z m577 4
c0 -3 -4 -8 -10 -11 -5 -3 -10 -1 -10 4 0 6 5 11 10 11 6 0 10 -2 10 -4z
m-720 -47 c0 -11 -29 -19 -35 -9 -3 5 -14 7 -25 5 -12 -2 -18 0 -15 5 6 10 75
9 75 -1z"/>
<path d="M1387 2337 c-3 -8 0 -14 7 -14 7 0 13 6 13 14 0 7 -4 13 -8 13 -4 0
-9 -6 -12 -13z"/>
<path d="M1813 2343 c4 -3 2 -11 -3 -18 -7 -8 -6 -12 3 -12 7 0 14 9 14 19 1
10 -3 18 -9 18 -6 0 -8 -3 -5 -7z"/>
<path d="M425 2320 c-16 -17 -16 -20 -3 -15 9 4 19 13 22 21 7 19 2 18 -19 -6z"/>
<path d="M514 2323 c2 -9 8 -18 15 -19 6 -1 7 0 1 3 -5 2 -8 9 -5 13 3 5 1 11
-4 14 -5 4 -8 -2 -7 -11z"/>
<path d="M1125 2330 c-3 -6 1 -7 9 -4 18 7 21 14 7 14 -6 0 -13 -4 -16 -10z"/>
<path d="M1687 2329 c7 -7 15 -10 18 -7 3 3 -2 9 -12 12 -14 6 -15 5 -6 -5z"/>
<path d="M1861 2333 c-1 -17 16 -25 25 -12 4 7 3 9 -4 5 -5 -3 -13 0 -15 6 -4
9 -6 10 -6 1z"/>
<path d="M1435 2320 c26 -11 35 -12 35 -2 0 4 -12 8 -27 9 -24 1 -25 1 -8 -7z"/>
<path d="M1506 2318 c3 -5 10 -6 15 -3 13 9 11 12 -6 12 -8 0 -12 -4 -9 -9z"/>
<path d="M1941 2323 c-1 -17 16 -25 25 -12 4 7 3 9 -4 5 -5 -3 -13 0 -15 6 -4
9 -6 10 -6 1z"/>
<path d="M2040 2320 c-9 -6 -10 -10 -3 -10 6 0 15 5 18 10 8 12 4 12 -15 0z"/>
<path d="M2116 2311 c4 -17 3 -21 -6 -16 -9 6 -11 4 -5 -4 5 -9 11 -9 17 -3 7
7 6 16 -1 29 -11 16 -11 15 -5 -6z"/>
<path d="M361 2317 c2 -1 13 -9 24 -17 19 -14 19 -14 6 3 -7 9 -18 17 -24 17
-6 0 -8 -1 -6 -3z"/>
<path d="M656 2312 c-2 -4 4 -8 14 -8 10 0 16 4 14 8 -3 4 -9 8 -14 8 -5 0
-11 -4 -14 -8z"/>
<path d="M476 2298 c3 -5 9 -7 12 -4 3 3 12 0 21 -6 13 -10 14 -10 4 2 -15 16
-46 23 -37 8z"/>
<path d="M606 2295 c-2 -6 2 -12 10 -12 7 0 15 6 18 12 2 6 -2 12 -10 12 -7 0
-15 -6 -18 -12z"/>
<path d="M810 2306 c0 -11 70 -44 75 -35 4 5 3 8 -2 7 -4 -1 -23 6 -40 15 -18
10 -33 16 -33 13z"/>
<path d="M1023 2303 c-7 -2 -13 -9 -13 -15 0 -7 5 -7 13 1 8 6 17 8 20 4 4 -3
7 -1 7 5 0 13 -7 14 -27 5z"/>
<path d="M1471 2296 c-10 -12 -9 -14 6 -11 10 2 22 4 26 4 10 1 -1 21 -12 21
-5 0 -14 -6 -20 -14z"/>
<path d="M2006 2302 c-3 -5 1 -9 9 -9 8 0 12 4 9 9 -3 4 -7 8 -9 8 -2 0 -6 -4
-9 -8z"/>
<path d="M946 2278 c3 -4 12 -4 21 -1 12 5 14 3 8 -7 -5 -9 -4 -11 4 -6 16 10
4 25 -19 23 -10 -1 -17 -5 -14 -9z"/>
<path d="M2270 2283 c0 -6 8 -17 18 -24 16 -13 16 -13 2 6 -8 11 -16 22 -17
24 -2 2 -3 0 -3 -6z"/>
<path d="M827 2269 c7 -7 15 -10 18 -7 3 3 -2 9 -12 12 -14 6 -15 5 -6 -5z"/>
<path d="M2310 2240 c0 -5 5 -10 10 -10 6 0 10 5 10 10 0 6 -4 10 -10 10 -5 0
-10 -4 -10 -10z"/>
<path d="M2334 2199 c-3 -6 -3 -13 0 -16 3 -4 6 -1 6 5 0 6 7 9 15 6 8 -4 15
-4 15 -1 0 11 -30 16 -36 6z"/>
<path d="M214 2129 c-3 -6 -2 -15 3 -20 5 -5 9 -1 9 11 0 23 -2 24 -12 9z"/>
<path d="M248 2116 c-3 -16 -1 -23 7 -19 7 2 11 13 8 24 -7 25 -10 24 -15 -5z"/>
<path d="M2373 2035 c0 -8 4 -12 9 -9 5 3 6 10 3 15 -9 13 -12 11 -12 -6z"/>
<path d="M2335 2010 c3 -5 8 -10 11 -10 2 0 4 5 4 10 0 6 -5 10 -11 10 -5 0
-7 -4 -4 -10z"/>
<path d="M2366 2002 c-3 -5 1 -9 9 -9 8 0 12 4 9 9 -3 4 -7 8 -9 8 -2 0 -6 -4
-9 -8z"/>
<path d="M2344 1964 c-18 -14 -18 -14 6 -3 31 14 36 19 24 19 -6 0 -19 -7 -30
-16z"/>
<path d="M231 1934 c6 -7 8 -18 4 -24 -3 -5 -2 -10 3 -10 6 0 12 7 16 15 3 8
1 15 -5 15 -6 0 -8 4 -5 8 3 5 -1 9 -9 9 -11 0 -12 -4 -4 -13z"/>
<path d="M2351 1925 c-19 -21 -20 -24 -5 -18 17 6 18 5 4 -12 -9 -11 -10 -16
-2 -11 17 10 15 -9 -3 -24 -8 -7 -15 -18 -15 -24 0 -6 4 -5 9 3 5 7 11 9 13 5
3 -5 3 -4 2 3 -2 7 1 15 6 18 5 3 8 16 6 28 -2 12 1 30 6 40 12 23 7 21 -21
-8z"/>
<path d="M2373 1845 c0 -8 4 -12 9 -9 5 3 6 10 3 15 -9 13 -12 11 -12 -6z"/>
<path d="M2336 1812 c-3 -5 1 -15 8 -21 11 -10 14 -9 12 3 -3 21 -13 29 -20
18z"/>
<path d="M2350 1735 c-7 -8 -17 -12 -23 -8 -6 4 -7 1 -3 -6 5 -7 11 -10 14 -7
3 3 11 1 18 -5 10 -8 12 -6 9 11 -3 16 0 20 11 16 9 -3 12 -1 9 4 -9 14 -21
12 -35 -5z"/>
<path d="M230 1711 c0 -6 4 -13 10 -16 6 -3 7 1 4 9 -7 18 -14 21 -14 7z"/>
<path d="M2336 1692 c-8 -13 0 -46 11 -49 6 -2 14 1 18 6 3 7 0 8 -9 5 -12 -4
-14 0 -10 20 4 26 0 34 -10 18z"/>
<path d="M210 1660 c0 -5 5 -10 11 -10 5 0 7 5 4 10 -3 6 -8 10 -11 10 -2 0
-4 -4 -4 -10z"/>
<path d="M244 1588 c-4 -7 -4 -10 1 -6 4 4 15 2 24 -5 14 -11 14 -10 2 6 -16
20 -18 21 -27 5z"/>
<path d="M2346 1558 c3 -5 10 -6 15 -3 13 9 11 12 -6 12 -8 0 -12 -4 -9 -9z"/>
<path d="M262 1551 c-11 -7 -11 -9 0 -14 9 -3 15 1 15 9 0 8 -1 14 -1 14 -1 0
-7 -4 -14 -9z"/>
<path d="M2280 1526 c0 -19 13 -27 28 -17 8 4 5 11 -8 19 -16 10 -20 10 -20
-2z"/>
<path d="M2331 1524 c0 -11 3 -14 6 -6 3 7 2 16 -1 19 -3 4 -6 -2 -5 -13z"/>
<path d="M2306 1492 c-3 -5 1 -9 9 -9 8 0 12 4 9 9 -3 4 -7 8 -9 8 -2 0 -6 -4
-9 -8z"/>
<path d="M2280 1480 c-1 -8 -3 -23 -5 -32 -2 -9 3 -22 11 -29 8 -6 11 -15 8
-20 -9 -15 3 -10 16 7 8 8 9 14 4 13 -22 -4 -25 2 -7 19 10 9 14 14 9 10 -19
-15 -28 -8 -15 9 8 9 9 14 2 10 -7 -4 -13 0 -16 10 -3 13 -5 14 -7 3z"/>
<path d="M265 1391 c-3 -5 -2 -12 3 -15 5 -3 9 1 9 9 0 17 -3 19 -12 6z"/>
<path d="M2310 1381 c0 -6 4 -12 8 -15 5 -3 9 1 9 9 0 8 -4 15 -9 15 -4 0 -8
-4 -8 -9z"/>
<path d="M267 1345 c3 -8 9 -12 14 -9 12 7 11 11 -5 17 -10 4 -13 1 -9 -8z"/>
<path d="M2334 1279 c-3 -6 -1 -16 5 -22 9 -9 10 -7 5 7 -6 15 -4 17 6 11 9
-5 11 -4 6 3 -9 15 -13 15 -22 1z"/>
<path d="M235 1261 c-3 -5 -2 -12 3 -15 5 -3 9 1 9 9 0 17 -3 19 -12 6z"/>
<path d="M260 1259 c0 -5 5 -7 10 -4 6 3 10 8 10 11 0 2 -4 4 -10 4 -5 0 -10
-5 -10 -11z"/>
<path d="M2310 1240 c0 -5 5 -10 10 -10 6 0 10 5 10 10 0 6 -4 10 -10 10 -5 0
-10 -4 -10 -10z"/>
<path d="M233 1118 c1 -7 -4 -12 -11 -10 -8 1 -11 -2 -8 -7 7 -10 42 -8 39 2
-2 4 -3 12 -3 17 0 6 -4 10 -10 10 -5 0 -9 -6 -7 -12z"/>
<path d="M2364 1099 c-3 -6 -2 -15 4 -21 6 -6 12 -6 17 3 6 8 4 10 -5 4 -10
-6 -12 -4 -7 8 7 19 2 23 -9 6z"/>
<path d="M257 993 c-4 -3 -7 -11 -7 -17 0 -6 5 -5 12 2 6 6 9 14 7 17 -3 3 -9
2 -12 -2z"/>
<path d="M273 955 c0 -8 4 -12 9 -9 4 3 8 9 8 15 0 5 -4 9 -8 9 -5 0 -9 -7 -9
-15z"/>
<path d="M255 900 c-4 -6 -1 -9 7 -8 7 2 12 -2 11 -7 -1 -6 6 -11 16 -11 10 0
18 6 18 13 0 7 -4 10 -9 7 -5 -3 -15 -1 -23 6 -9 8 -15 8 -20 0z"/>
<path d="M257 859 c7 -7 15 -10 18 -7 3 3 -2 9 -12 12 -14 6 -15 5 -6 -5z"/>
<path d="M250 759 c0 -5 5 -7 10 -4 6 3 10 8 10 11 0 2 -4 4 -10 4 -5 0 -10
-5 -10 -11z"/>
<path d="M225 739 c-6 -8 -4 -10 5 -4 10 6 12 4 6 -11 -6 -15 -5 -17 5 -6 9 9
10 15 2 23 -8 8 -13 7 -18 -2z"/>
<path d="M2375 720 c-3 -5 -1 -10 4 -10 6 0 11 5 11 10 0 6 -2 10 -4 10 -3 0
-8 -4 -11 -10z"/>
<path d="M215 660 c3 -5 8 -10 11 -10 2 0 4 5 4 10 0 6 -5 10 -11 10 -5 0 -7
-4 -4 -10z"/>
<path d="M227 579 c7 -9 10 -19 6 -22 -3 -4 -1 -7 5 -7 17 0 15 16 -5 31 -16
12 -17 12 -6 -2z"/>
<path d="M2355 520 c3 -5 8 -10 11 -10 2 0 4 5 4 10 0 6 -5 10 -11 10 -5 0 -7
-4 -4 -10z"/>
<path d="M253 501 c10 -12 9 -14 -5 -8 -12 4 -15 2 -11 -9 4 -11 9 -12 16 -5
16 16 17 38 1 38 -11 0 -11 -3 -1 -16z"/>
<path d="M215 451 c-3 -5 -2 -12 3 -15 5 -3 9 1 9 9 0 17 -3 19 -12 6z"/>
<path d="M251 453 c-1 -6 -4 -20 -7 -30 -5 -17 -5 -17 6 0 6 10 9 23 6 30 -3
9 -5 9 -5 0z"/>
<path d="M2373 439 c-2 -23 3 -25 10 -4 4 8 3 16 -1 19 -4 3 -9 -4 -9 -15z"/>
<path d="M370 303 c0 -4 5 -15 10 -23 8 -13 10 -13 10 2 0 9 -4 20 -10 23 -5
3 -10 3 -10 -2z"/>
<path d="M503 302 c-7 -4 -9 -13 -4 -21 6 -9 10 -7 14 8 3 12 4 21 4 21 -1 0
-7 -4 -14 -8z"/>
<path d="M545 290 c-10 -12 -13 -20 -7 -20 7 0 12 6 12 13 0 9 2 9 9 -1 7 -11
9 -11 14 2 9 24 -8 28 -28 6z"/>
<path d="M699 293 c-8 -9 -9 -14 -2 -10 6 4 14 1 16 -5 4 -9 6 -8 6 2 1 13 2
13 11 0 5 -8 11 -12 15 -9 3 3 -3 13 -14 23 -17 15 -19 15 -32 -1z"/>
<path d="M864 301 c-11 -8 -13 -52 -2 -45 4 3 8 15 8 26 0 19 1 20 18 5 20
-18 32 -19 49 -6 7 7 14 6 18 -1 3 -5 1 -10 -6 -10 -7 0 -9 -3 -6 -6 4 -4 13
-1 21 5 9 8 16 8 20 2 4 -5 18 -8 32 -5 14 3 23 1 20 -4 -3 -5 0 -9 7 -9 24
-1 42 -8 55 -23 11 -13 11 -11 2 7 -6 13 -14 22 -18 22 -19 -3 -32 2 -30 12 2
6 -5 13 -14 14 -10 2 -18 -2 -18 -8 0 -7 -5 -4 -11 6 -8 13 -14 15 -29 7 -13
-7 -21 -7 -25 0 -5 8 -11 8 -19 1 -9 -7 -16 -7 -24 1 -14 14 -36 18 -48 9z"/>
<path d="M327 283 c-3 -5 6 -9 20 -10 19 -1 22 1 12 8 -17 11 -26 11 -32 2z"/>
<path d="M1582 265 c15 -16 20 -17 30 -6 11 11 10 13 0 7 -7 -4 -21 -2 -30 5
-15 12 -15 11 0 -6z"/>
<path d="M430 260 c0 -5 7 -7 15 -4 8 4 15 8 15 10 0 2 -7 4 -15 4 -8 0 -15
-4 -15 -10z"/>
<path d="M580 266 c0 -2 7 -6 15 -10 8 -3 15 -1 15 4 0 6 -7 10 -15 10 -8 0
-15 -2 -15 -4z"/>
<path d="M666 258 c3 -4 11 -5 19 -1 21 7 19 12 -4 10 -11 0 -18 -5 -15 -9z"/>
<path d="M1963 258 c-11 -19 -13 -39 -1 -32 5 3 7 9 4 12 -3 3 -1 11 5 19 6 7
9 13 6 13 -3 0 -9 -6 -14 -12z"/>
<path d="M2220 260 c-18 -12 -2 -12 25 0 13 6 15 9 5 9 -8 0 -22 -4 -30 -9z"/>
<path d="M2080 251 l-25 -7 26 -5 c17 -4 26 -1 26 8 0 7 -1 13 -1 12 -1 -1
-12 -4 -26 -8z"/>
<path d="M1980 239 c0 -5 5 -7 10 -4 6 3 10 8 10 11 0 2 -4 4 -10 4 -5 0 -10
-5 -10 -11z"/>
<path d="M1680 220 c-9 -6 -10 -10 -3 -10 6 0 15 5 18 10 8 12 4 12 -15 0z"/>
<path d="M1810 226 c0 -2 7 -7 16 -10 8 -3 12 -2 9 4 -6 10 -25 14 -25 6z"/>
<path d="M1136 199 c4 -8 30 -6 38 2 3 3 -5 5 -19 5 -13 0 -22 -3 -19 -7z"/>
<path d="M1250 202 c0 -4 10 -9 22 -9 18 -2 20 0 8 7 -18 12 -30 13 -30 2z"/>
</g>
</svg>
